<svg xmlns="http://www.w3.org/2000/svg" width="22" height="22" viewBox="0 0 22 22">
  <g fill="none" fill-rule="evenodd">
    <g fill="#CCCCCC" fill-rule="nonzero" transform="translate(9 6)">
      <path d="M0.142197931,0.0641110498 C0.333869902,-0.0892265271 0.60377612,-0.0786407764 0.782544576,0.0770491895 L0.844979859,0.142197931 L4.4813435,4.68765248 C4.65384827,4.90328344 4.61888758,5.21792963 4.40325661,5.3904344 C4.21158464,5.54377198 3.94167842,5.53318623 3.76290997,5.37749627 L3.70047469,5.31234752 L0.0641110498,0.766892978 C-0.108393724,0.551262011 -0.0734330368,0.236615824 0.142197931,0.0641110498 Z"/>
      <path d="M3.70047469,4.68765248 C3.87297946,4.47202151 4.18762565,4.43706082 4.40325661,4.6095656 C4.59492859,4.76290317 4.64384873,5.02855001 4.53119794,5.23713411 L4.4813435,5.31234752 L0.844979859,9.85780207 C0.672475085,10.073433 0.357828898,10.1083937 0.142197931,9.93588895 C-0.0494740404,9.78255137 -0.0983941853,9.51690453 0.0142566084,9.30832044 L0.0641110498,9.23310702 L3.70047469,4.68765248 Z"/>
    </g>
    <polygon points="0 0 22 0 22 22 0 22"/>
  </g>
</svg>