<svg xmlns="http://www.w3.org/2000/svg" width="22" height="22" viewBox="0 0 22 22">
  <g fill="none" fill-rule="evenodd">
    <path fill="#CCCCCC" fill-rule="nonzero" d="M14.5 13C15.3284271 13 16 13.6715729 16 14.5 16 15.3284271 15.3284271 16 14.5 16 13.6715729 16 13 15.3284271 13 14.5 13 13.6715729 13.6715729 13 14.5 13zM14.5 14C14.2238576 14 14 14.2238576 14 14.5 14 14.7761424 14.2238576 15 14.5 15 14.7761424 15 15 14.7761424 15 14.5 15 14.2238576 14.7761424 14 14.5 14zM7.5 6C8.32842712 6 9 6.67157288 9 7.5 9 8.32842712 8.32842712 9 7.5 9 6.67157288 9 6 8.32842712 6 7.5 6 6.67157288 6.67157288 6 7.5 6zM7.5 7C7.22385763 7 7 7.22385763 7 7.5 7 7.77614237 7.22385763 8 7.5 8 7.77614237 8 8 7.77614237 8 7.5 8 7.22385763 7.77614237 7 7.5 7z"/>
    <polygon fill="#CCCCCC" points="9.939 4.99 11 3.929 12.061 17.01 11 18.071" transform="rotate(45 11 11)"/>
    <polygon points="0 0 22 0 22 22 0 22"/>
  </g>
</svg>